<?xml version="1.0" standalone="no"?><!DOCTYPE svg PUBLIC "-//W3C//DTD SVG 1.1//EN" "http://www.w3.org/Graphics/SVG/1.1/DTD/svg11.dtd"><svg class="icon" width="200px" height="200.00px" viewBox="0 0 1024 1024" version="1.1" xmlns="http://www.w3.org/2000/svg"><path d="M789.333333 294.997333l-161.834666 161.834667a42.666667 42.666667 0 0 1-60.330667-60.330667L729.002667 234.666667l-33.834667-33.834667C668.288 173.952 687.317333 128 725.333333 128h128a42.666667 42.666667 0 0 1 42.666667 42.666667v128c0 37.973333-45.952 57.045333-72.832 30.165333l-33.834667-33.834667z m-554.666666 434.005334l161.834666-161.834667a42.666667 42.666667 0 1 1 60.330667 60.330667L294.997333 789.333333l33.834667 33.834667C355.712 850.048 336.682667 896 298.666667 896H170.666667a42.666667 42.666667 0 0 1-42.666667-42.666667v-128c0-37.973333 45.952-57.045333 72.832-30.165333l33.834667 33.834667z" fill="#000000" /></svg>