<?xml version="1.0" standalone="no"?><!DOCTYPE svg PUBLIC "-//W3C//DTD SVG 1.1//EN" "http://www.w3.org/Graphics/SVG/1.1/DTD/svg11.dtd"><svg class="icon" width="200px" height="200.00px" viewBox="0 0 1024 1024" version="1.1" xmlns="http://www.w3.org/2000/svg"><path d="M512 938.666667C276.352 938.666667 85.333333 747.648 85.333333 512S276.352 85.333333 512 85.333333s426.666667 191.018667 426.666667 426.666667-191.018667 426.666667-426.666667 426.666667z m0-85.333334a341.333333 341.333333 0 1 0 0-682.666666 341.333333 341.333333 0 0 0 0 682.666666z m-97.834667-371.498666L469.333333 537.002667l140.501334-140.501334a42.666667 42.666667 0 0 1 60.330666 60.330667l-170.666666 170.666667a42.666667 42.666667 0 0 1-60.330667 0l-85.333333-85.333334a42.666667 42.666667 0 0 1 60.330666-60.330666z" fill="#000000" /></svg>