<?xml version="1.0" standalone="no"?><!DOCTYPE svg PUBLIC "-//W3C//DTD SVG 1.1//EN" "http://www.w3.org/Graphics/SVG/1.1/DTD/svg11.dtd"><svg class="icon" width="200px" height="200.00px" viewBox="0 0 1024 1024" version="1.1" xmlns="http://www.w3.org/2000/svg"><path d="M213.333333 128h597.333334a85.333333 85.333333 0 0 1 85.333333 85.333333v597.333334a85.333333 85.333333 0 0 1-85.333333 85.333333H213.333333a85.333333 85.333333 0 0 1-85.333333-85.333333V213.333333a85.333333 85.333333 0 0 1 85.333333-85.333333z m0 85.333333v597.333334h597.333334V213.333333H213.333333z m371.498667 200.832L486.997333 512l97.834667 97.834667a42.666667 42.666667 0 0 1-60.330667 60.330666l-128-128a42.666667 42.666667 0 0 1 0-60.330666l128-128a42.666667 42.666667 0 0 1 60.330667 60.330666z" fill="#000000" /></svg>