<?xml version="1.0" standalone="no"?><!DOCTYPE svg PUBLIC "-//W3C//DTD SVG 1.1//EN" "http://www.w3.org/Graphics/SVG/1.1/DTD/svg11.dtd"><svg class="icon" width="200px" height="200.00px" viewBox="0 0 1024 1024" version="1.1" xmlns="http://www.w3.org/2000/svg"><path d="M298.666667 298.666667V170.666667a42.666667 42.666667 0 1 1 85.333333 0v170.666666a42.666667 42.666667 0 0 1-42.666667 42.666667H170.666667a42.666667 42.666667 0 1 1 0-85.333333h128z m0 426.666666H170.666667a42.666667 42.666667 0 0 1 0-85.333333h170.666666a42.666667 42.666667 0 0 1 42.666667 42.666667v170.666666a42.666667 42.666667 0 0 1-85.333333 0v-128zM725.333333 298.666667h128a42.666667 42.666667 0 0 1 0 85.333333h-170.666666a42.666667 42.666667 0 0 1-42.666667-42.666667V170.666667a42.666667 42.666667 0 0 1 85.333333 0v128z m0 426.666666v128a42.666667 42.666667 0 0 1-85.333333 0v-170.666666a42.666667 42.666667 0 0 1 42.666667-42.666667h170.666666a42.666667 42.666667 0 0 1 0 85.333333h-128z" fill="#000000" /></svg>