<?xml version="1.0" standalone="no"?><!DOCTYPE svg PUBLIC "-//W3C//DTD SVG 1.1//EN" "http://www.w3.org/Graphics/SVG/1.1/DTD/svg11.dtd"><svg class="icon" width="200px" height="200.00px" viewBox="0 0 1024 1024" version="1.1" xmlns="http://www.w3.org/2000/svg"><path d="M661.333333 302.336l161.834667-161.834667a42.666667 42.666667 0 0 1 60.330667 60.330667L721.664 362.666667l33.834667 33.834666c26.88 26.88 7.850667 72.832-30.165334 72.832h-128a42.666667 42.666667 0 0 1-42.666666-42.666666V298.666667c0-37.973333 45.952-57.045333 72.832-30.165334l33.834666 33.834667z m-298.666666 419.328l-161.834667 161.834667a42.666667 42.666667 0 1 1-60.330667-60.330667L302.336 661.333333l-33.834667-33.834666C241.621333 600.618667 260.650667 554.666667 298.666667 554.666667h128a42.666667 42.666667 0 0 1 42.666666 42.666666v128c0 37.973333-45.952 57.045333-72.832 30.165334l-33.834666-33.834667z" fill="#000000" /></svg>